<svg xmlns="http://www.w3.org/2000/svg" viewBox="0 0 64 64">
  <circle cx="32" cy="32" r="30" fill="#091F2C" stroke="#1e224e" stroke-width="2"/>
  <path d="M32 2 A30 30 0 0 1 57.98 17L32 32Z" fill="#d5522b"/>
  <path d="M57.98 17 A30 30 0 0 1 57.98 47L32 32Z" fill="#e8762a"/>
  <path d="M57.98 47 A30 30 0 0 1 32 62L32 32Z" fill="#f59e0b"/>
  <path d="M32 62 A30 30 0 0 1 6.02 47L32 32Z" fill="#10b981"/>
  <path d="M6.02 47 A30 30 0 0 1 6.02 17L32 32Z" fill="#3b82f6"/>
  <path d="M6.02 17 A30 30 0 0 1 32 2L32 32Z" fill="#8b5cf6"/>
  <circle cx="32" cy="32" r="6" fill="#fff"/>
  <circle cx="32" cy="32" r="3" fill="#091F2C"/>
</svg>
